# AST/ASF file generated using VICON BodyLanguage
# -----------------------------------------------
:version 1.10
:name VICON
:units
  mass 1.0
  length 0.45
  angle deg
:documentation
   .ast/.asf automatically generated from VICON data using
   VICON BodyBuilder and BodyLanguage model FoxedUp or BRILLIANT.MOD
:root
   order TX TY TZ RX RY RZ
   axis XYZ
   position 0 0 0  
   orientation 0 0 0 
:bonedata
  begin
     id 1 
     name lhipjoint
     direction 0.690799 -0.707083 0.151096 
     length 2.54797 
     axis 0 0 0  XYZ
  end
  begin
     id 2 
     name lfemur
     direction 0.34202 -0.939693 0  
     length 7.21646  
     axis 0 0 20  XYZ
    dof rx ry rz
    limits (-160.0 20.0)
           (-70.0 70.0)
           (-60.0 70.0)
  end
  begin
     id 3 
     name ltibia
     direction 0.34202 -0.939693 0   
     length 8.16759   
     axis 0 0 20   XYZ
    dof rx
    limits (-10.0 170.0)
  end
  begin
     id 4 
     name lfoot
     direction 0.0487203 -0.133858 0.989802   
     length 1.93375   
     axis -90 7.62852e-016 20   XYZ
    dof rx rz
    limits (-45.0 90.0)
           (-70.0 20.0)
  end
  begin
     id 5 
     name ltoes
     direction 1.53453e-011 -4.21783e-011 1   
     length 0.979747   
     axis -90 7.62852e-016 20   XYZ
    dof rx
    limits (-90.0 20.0)
  end
  begin
     id 6 
     name rhipjoint
     direction -0.694693 -0.703425 0.150315   
     length 2.56122  
     axis 0 0 0  XYZ 
  end
  begin
     id 7 
     name rfemur
     direction -0.34202 -0.939693 0   
     length 7.36786   
     axis 0 0 -20   XYZ
    dof rx ry rz
    limits (-160.0 20.0)
           (-70.0 70.0)
           (-70.0 60.0)
  end
  begin
     id 8 
     name rtibia
     direction -0.34202 -0.939693 0   
     length 8.07288   
     axis 0 0 -20   XYZ
    dof rx
    limits (-10.0 170.0)
 end
 begin
     id 9 
     name rfoot
     direction -0.0428397 -0.117701 0.992125   
     length 1.88295  
     axis -90 -7.62852e-016 -20   XYZ
    dof rx rz
    limits (-45.0 90.0)
           (-20.0 70.0)
  end
  begin
     id 10 
     name rtoes
     direction -1.53456e-011 -4.2187e-011 1   
     length 0.955578   
     axis -90 -7.62852e-016 -20   XYZ
    dof rx
    limits (-90.0 20.0)
  end
  begin
     id 11 
     name lowerback
     direction 0.0288145 0.999398 -0.0193241   
     length 1.92149   
     axis 0 0 0   XYZ
    dof rx ry rz
    limits (-20.0 45.0)
           (-30.0 30.0)
           (-30.0 30.0)
  end
  begin
     id 12 
     name upperback
     direction 0.0233784 0.998099 0.0570278   
     length 1.90435   
     axis 0 0 0   XYZ
    dof rx ry rz
    limits (-20.0 45.0)
           (-30.0 30.0)
           (-30.0 30.0)
  end
  begin
     id 13 
     name thorax
     direction 0.0096694 0.997833 0.0650817   
     length 1.9111   
     axis 0 0 0   XYZ
    dof rx ry rz
    limits (-20.0 45.0)
           (-30.0 30.0)
           (-30.0 30.0)
  end
  begin
     id 14 
     name lowerneck
     direction 0.00516803 0.999916 0.0118722   
     length 1.74664   
     axis 0 0 0   XYZ
    dof rx ry rz
    limits (-20.0 45.0)
           (-30.0 30.0)
           (-30.0 30.0)
  end
  begin
     id 15 
     name upperneck
     direction -0.0510851 0.996117 -0.071696   
     length 1.68498   
     axis 0 0 0   XYZ
    dof rx ry rz
    limits (-20.0 45.0)
           (-30.0 30.0)
           (-30.0 30.0)
  end
  begin
     id 16
     name head
     direction -0.019188 0.999436 -0.0275702  
     length 1.83483  
     axis 0 0 0   XYZ
    dof rx ry rz
    limits (-20.0 45.0)
           (-30.0 30.0)
           (-30.0 30.0)
  end
  begin
     id 17 
     name lclavicle
     direction 0.967006 0.248456 -0.0562957  
     length 3.39395  
     axis 0 0 0   XYZ
    dof ry rz
    limits (-20.0 10.0)
           (0.0 20.0)
  end
  begin
     id 18 
     name lhumerus
     direction 1 -4.48962e-011 -5.62711e-019   
     length 5.24318   
     axis 180 -30 -90   XYZ
    dof rx ry rz
    limits (-60.0 90.0)
           (-90.0 90.0)
           (-90.0 90.0)
  end
  begin
     id 19
     name lradius
     direction 1 -4.48966e-011 7.90625e-027   
     length 2.98999   
     axis 180 -30 -90   XYZ
    dof rx
    limits (-10.0 170.0)
  end
  begin
     id 20
     name lwrist
     direction 1 -4.48959e-011 1.61068e-026   
     length 1.49499   
     axis -9.31229e-015 90 90   XYZ
    dof ry
    limits (-180.0 0.0)
 end
  begin
     id 21 
     name lhand
     direction 1 -4.49017e-011 3.22136e-026   
     length 0.726745   
     axis -2.0555e-014 90 90   XYZ
    dof rx rz
    limits (-90.0 90.0)
           (-45.0 45.0)
  end
  begin
     id 22 
     name lfingers
     direction 1 -4.4898e-011 6.44272e-026   
     length 0.58592   
     axis -4.11101e-014 90 90   XYZ
    dof rx
    limits (0.0 90.0)
  end
  begin
     id 23
     name lthumb
     direction 0.707107 -6.34922e-011 0.707107   
     length 0.841268   
     axis -90 45 2.85299e-015   XYZ
    dof rx rz
    limits (-45.0 45.0)
           (-45.0 45.0)
  end
  begin
     id 24 
     name rclavicle
     direction -0.972232 0.230238 0.0419005   
     length 3.40416  
     axis 0 0 0   XYZ 
    dof ry rz
    limits (-10.0 20.0)
           (-20.0 0.0)
  end
  begin
     id 25 
     name rhumerus
     direction -1 -4.48976e-011 2.48487e-027  
     length 5.37045   
     axis 180 30 90   XYZ
    dof rx ry rz
    limits (-90.0 60.0)
           (-90.0 90.0)
           (-90.0 90.0)
  end
  begin
     id 26 
     name rradius
     direction -1 -4.48942e-011 7.87951e-027   
     length 2.92792   
     axis 180 30 90   XYZ
    dof rx
    limits (-10.0 170.0)
  end
  begin
     id 27 
     name rwrist
     direction -1 -4.48969e-011 1.61068e-026   
     length 1.46396   
     axis -9.31229e-015 -90 -90   XYZ
    dof ry
    limits (-180.0 0.0)
  end
  begin
     id 28
     name rhand
     direction -1 -4.49043e-011 3.22136e-026   
     length 0.784497   
     axis -2.0555e-014 -90 -90   XYZ
    dof rx rz
    limits (-90.0 90.0)
           (-45.0 45.0)
  end
  begin
     id 29
     name rfingers
     direction -1 -4.48823e-011 6.44272e-026   
     length 0.632482   
     axis -4.11101e-014 -90 -90   XYZ
    dof rx
    limits (0.0 90.0)
  end
  begin
     id 30
     name rthumb
     direction -0.707107 -6.34923e-011 0.707107   
     length 0.908121   
     axis -90 -45 -2.85299e-015   XYZ
    dof rx rz
    limits (-45.0 45.0)
           (-45.0 45.0)
  end
:hierarchy
  begin
    root lhipjoint rhipjoint lowerback
    lhipjoint lfemur
    lfemur ltibia
    ltibia lfoot
    lfoot ltoes
    rhipjoint rfemur
    rfemur rtibia
    rtibia rfoot
    rfoot rtoes
    lowerback upperback
    upperback thorax
    thorax lowerneck lclavicle rclavicle
    lowerneck upperneck
    upperneck head
    lclavicle lhumerus
    lhumerus lradius
    lradius lwrist
    lwrist lhand lthumb
    lhand lfingers
    rclavicle rhumerus
    rhumerus rradius
    rradius rwrist
    rwrist rhand rthumb
    rhand rfingers
  end

#!OML:ASF E:\Style6\Style6.ASF
:FULLY-SPECIFIED
:DEGREES
1041
root 0.769729 15.6907 -0.436293 4.43282 3.87519 5.9184
lowerback 8.02977 2.02355 8.2291
upperback 4.06641 3.35836 8.40224
thorax -0.289521 1.71084 3.8876
lowerneck -3.75721 0.831855 1.39377
upperneck 10.1851 3.67043 -24.4521
head 4.13842 0.822399 -7.79634
rclavicle -7.15625e-015 -5.08889e-014
rhumerus -11.4985 18.4823 -57.4355
rradius 85.4152
rwrist -22.348
rhand -22.3001 1.80343
rfingers 7.12502
rthumb 4.119 -28.1365
lclavicle -7.15625e-015 -5.08889e-014
lhumerus -36.186 -34.9477 43.0484
lradius 77.7666
lwrist 38.2862
lhand -26.4431 36.1084
lfingers 7.12502
lthumb 0.11783 66.0881
rfemur -40.2939 -19.1064 10.7691
rtibia 70.9179
rfoot -26.4107 1.61078
rtoes -16.4164
lfemur -39.8078 5.51683 -28.4972
ltibia 66.7739
lfoot -24.0601 4.45022
ltoes -21.7297
1042
root 0.798406 15.6595 -0.459382 5.15132 4.08189 6.26386
lowerback 8.20733 1.99318 8.18282
upperback 3.80245 3.37433 8.50275
thorax -0.675051 1.70684 4.0035
lowerneck -4.13642 0.864189 1.53001
upperneck 9.95906 3.7131 -24.7526
head 4.15605 0.829283 -7.91804
rclavicle 1.43125e-014 2.8625e-014
rhumerus -12.5656 16.4937 -56.7552
rradius 85.7966
rwrist -22.5867
rhand -22.6706 1.8989
rfingers 7.12502
rthumb 3.76116 -28.0477
lclavicle 1.43125e-014 2.8625e-014
lhumerus -36.5058 -33.769 43.0797
lradius 77.3847
lwrist 37.5828
lhand -26.5944 35.8462
lfingers 7.12502
lthumb -0.0283109 65.826
rfemur -41.3965 -19.5145 10.4999
rtibia 71.3988
rfoot -26.3967 1.82935
rtoes -16.1851
lfemur -40.8311 5.0881 -29.0844
ltibia 67.0422
lfoot -23.932 4.59784
ltoes -21.8013
1043
root 0.828111 15.6289 -0.480973 5.78464 4.1865 6.64512
lowerback 8.47991 1.9801 8.07289
upperback 3.56363 3.4198 8.63489
thorax -1.09343 1.71699 4.18382
lowerneck -4.38879 0.882135 1.54822
upperneck 9.65716 3.71621 -25.0222
head 4.12082 0.828101 -8.00749
rclavicle 3.4191e-014 7.31528e-014
rhumerus -13.5274 14.636 -55.8992
rradius 86.1137
rwrist -22.8662
rhand -22.7039 1.77714
rfingers 7.12502
rthumb 3.72908 -28.17
lclavicle 3.4191e-014 7.31528e-014
lhumerus -37.0166 -32.7009 43.3202
lradius 77.0532
lwrist 36.775
lhand -26.7465 35.7687
lfingers 7.12502
lthumb -0.175227 65.7484
rfemur -42.4248 -19.8444 10.1579
rtibia 71.8904
rfoot -26.4125 1.95875
rtoes -16.69
lfemur -41.7048 4.67945 -29.6876
ltibia 67.2859
lfoot -23.8396 4.8786
ltoes -22.2903
1044
root 0.856983 15.5938 -0.504708 6.36893 4.22025 7.06409
lowerback 8.82297 1.96828 7.87399
upperback 3.39249 3.46226 8.79527
thorax -1.48754 1.72733 4.44411
lowerneck -4.65355 0.960483 1.5791
upperneck 9.24934 3.78796 -25.3591
head 4.06903 0.866597 -8.11674
rclavicle 3.97569e-014 1.59028e-014
rhumerus -14.1966 13.0043 -54.8368
rradius 86.2615
rwrist -23.1014
rhand -23.2176 1.72786
rfingers 7.12502
rthumb 3.233 -28.2274
lclavicle 3.97569e-014 1.59028e-014
lhumerus -37.6041 -31.6292 43.6537
lradius 76.7927
lwrist 36.0605
lhand -26.6711 35.9102
lfingers 7.12502
lthumb -0.102398 65.89
rfemur -43.4551 -20.1964 9.78798
rtibia 72.398
rfoot -26.4581 1.84321
rtoes -18.2578
lfemur -42.5347 4.31294 -30.3149
ltibia 67.5413
lfoot -23.7673 4.97731
ltoes -22.0237
1045
root 0.886574 15.558 -0.530183 7.00746 4.21357 7.44847
lowerback 9.08982 1.97437 7.68051
upperback 3.2695 3.51277 8.99249
thorax -1.7914 1.74504 4.74549
lowerneck -5.0449 1.09318 1.70291
upperneck 8.84389 3.95061 -25.8279
head 4.06075 0.939756 -8.28576
rclavicle -2.62396e-014 -3.18055e-014
rhumerus -14.669 11.3551 -53.6917
rradius 86.3019
rwrist -23.2107
rhand -23.9987 1.54741
rfingers 7.12502
rthumb 2.47866 -28.4179
lclavicle -2.62396e-014 -3.18055e-014
lhumerus -38.1651 -30.5001 44.0127
lradius 76.5625
lwrist 35.562
lhand -26.4187 35.9676
lfingers 7.12502
lthumb 0.141334 65.9473
rfemur -44.5647 -20.5483 9.49376
rtibia 72.8955
rfoot -26.4466 1.81588
rtoes -19.3279
lfemur -43.4575 3.96254 -30.9192
ltibia 67.8172
lfoot -23.6387 5.07739
ltoes -21.7862
1046
root 0.918373 15.5261 -0.555092 7.65888 4.21855 7.75266
lowerback 9.36654 1.97908 7.70057
upperback 3.1275 3.58154 9.1391
thorax -2.10524 1.77212 4.87246
lowerneck -5.45505 1.2139 1.80787
upperneck 8.43827 4.08626 -26.1954
head 4.05076 1.00158 -8.4174
rclavicle -4.77083e-015 -6.99722e-014
rhumerus -15.22 9.60549 -52.644
rradius 86.2935
rwrist -23.231
rhand -24.6797 1.21179
rfingers 7.12502
rthumb 1.82095 -28.7602
lclavicle -4.77083e-015 -6.99722e-014
lhumerus -38.6683 -29.4559 44.2678
lradius 76.2609
lwrist 35.0668
lhand -25.9688 35.7787
lfingers 7.12502
lthumb 0.575927 65.7576
rfemur -45.6454 -20.9186 9.27921
rtibia 73.3636
rfoot -26.3851 2.13957
rtoes -19.082
lfemur -44.3909 3.5931 -31.4305
ltibia 68.1
lfoot -23.5893 5.13861
ltoes -21.2217
1047
root 0.949884 15.49 -0.584761 8.34772 4.20739 8.13919
lowerback 9.72208 1.96961 7.67591
upperback 2.94562 3.64343 9.25281
thorax -2.50622 1.79416 4.98676
lowerneck -5.79654 1.34564 1.91609
upperneck 8.00757 4.22864 -26.5951
head 4.02406 1.07273 -8.56048
rclavicle 2.70347e-014 8.26944e-014
rhumerus -15.7883 7.84544 -51.6446
rradius 86.2343
rwrist -23.078
rhand -24.9819 0.97554
rfingers 7.12502
rthumb 1.52909 -28.9987
lclavicle 2.70347e-014 8.26944e-014
lhumerus -39.2751 -28.4944 44.5541
lradius 75.9327
lwrist 34.5228
lhand -25.4721 35.4624
lfingers 7.12502
lthumb 1.05556 65.4395
rfemur -46.8101 -21.304 8.985
rtibia 73.8273
rfoot -26.2291 2.82218
rtoes -17.5217
lfemur -45.3782 3.19194 -32.0332
ltibia 68.3792
lfoot -23.5098 5.37193
ltoes -20.908
1048
root 0.982245 15.4527 -0.616876 9.02094 4.18396 8.44287
lowerback 10.1156 1.9337 7.7612
upperback 2.77548 3.68747 9.40923
thorax -2.91187 1.80702 5.08848
lowerneck -6.05674 1.50855 2.08531
upperneck 7.50539 4.39832 -27.1196
head 3.97203 1.16717 -8.75678
rclavicle 4.77083e-015 -6.99722e-014
rhumerus -16.3019 6.14036 -50.6398
rradius 86.3491
rwrist -22.765
rhand -25.3838 0.618604
rfingers 7.12502
rthumb 1.14085 -29.3581
lclavicle 4.77083e-015 -6.99722e-014
lhumerus -39.9113 -27.4796 44.8909
lradius 75.4973
lwrist 33.8987
lhand -24.7084 34.716
lfingers 7.12502
lthumb 1.79319 64.6882
rfemur -47.995 -21.6861 8.80498
rtibia 74.2759
rfoot -26.1387 3.19241
rtoes -17.3743
lfemur -46.3806 2.79754 -32.5372
ltibia 68.6634
lfoot -23.3987 5.51503
ltoes -20.7431
1049
root 1.01728 15.4213 -0.648 9.61616 4.15172 8.65783
lowerback 10.4783 1.88186 8.0507
upperback 2.70627 3.71446 9.54406
thorax -3.17859 1.81236 5.05902
lowerneck -6.41776 1.67503 2.19781
upperneck 6.98376 4.56917 -27.5609
head 3.93245 1.25849 -8.91303
rclavicle -2.8625e-014 3.18055e-015
rhumerus -16.536 4.38494 -49.7364
rradius 86.2953
rwrist -22.4039
rhand -25.7372 0.0273119
rfingers 7.12502
rthumb 0.799554 -29.9509
lclavicle -2.8625e-014 3.18055e-015
lhumerus -40.4134 -26.483 45.1052
lradius 75.0038
lwrist 33.2268
lhand -23.8353 33.8397
lfingers 7.12502
lthumb 2.6364 63.8032
rfemur -49.0564 -22.0629 8.70122
rtibia 74.6776
rfoot -26.051 3.54978
rtoes -17.1657
lfemur -47.2866 2.428 -32.9436
ltibia 68.9331
lfoot -23.2854 5.67156
ltoes -20.5987
1050
root 1.0539 15.3919 -0.677232 10.2262 4.0741 8.8817
lowerback 10.7188 1.84424 8.41052
upperback 2.70776 3.74035 9.63358
thorax -3.29429 1.8189 4.94662
lowerneck -6.89217 1.84716 2.34259
upperneck 6.55898 4.77463 -28.015
head 3.95164 1.351 -9.0813
rclavicle -4.77083e-014 1.27222e-014
rhumerus -16.5475 2.53778 -48.8932
rradius 85.8323
rwrist -22.0403
rhand -25.7411 -0.226434
rfingers 7.12502
rthumb 0.795813 -30.2047
lclavicle -4.77083e-014 1.27222e-014
lhumerus -40.7956 -25.4379 45.236
lradius 74.4386
lwrist 32.4785
lhand -22.8566 33.1189
lfingers 7.12502
lthumb 3.58158 63.0686
rfemur -50.1331 -22.3789 8.57871
rtibia 75.0567
rfoot -25.9758 3.65395
rtoes -18.0938
lfemur -48.1863 2.0833 -33.3619
ltibia 69.1895
lfoot -23.2145 5.7238
ltoes -20.0914
